PathFileType	4	(X/Y/Z)	/Users/itak/Documents/Research/Walk-IL/dataset/trc/00078_00006.trc
DataRate	CameraRate	NumFrames	NumMarkers	Units	OrigDataRate	OrigDataStartFrame	OrigNumFrames
100.000000	100.000000	4	53	mm	100.000000	76	611
Frame#	Time	RPSI			LPSI			L3			STRN			T10			C7			CLAV			RBAK			LBAK			LSHO			LUPA			LAEL			LAOL			LWTS			LWPS			LFRA			LIFD			LHPS			LHTS			RSHO			RUPA			RAEL			RAOL			RWTS			RWPS			RFRA			RIFD			RHTS			RHPS			RBHD			LFHD			RFHD			LBHD			LHIP			RHIP			RASI			LASI			LKNE			LTHI			LANK			LTIP			LTOE			LMT1			LMT5			LHEE			RKNE			RTHI			RANK			RTIP			RTOE			RMT1			RMT5			RHEE			
		X1	Y1	Z1	X2	Y2	Z2	X3	Y3	Z3	X4	Y4	Z4	X5	Y5	Z5	X6	Y6	Z6	X7	Y7	Z7	X8	Y8	Z8	X9	Y9	Z9	X10	Y10	Z10	X11	Y11	Z11	X12	Y12	Z12	X13	Y13	Z13	X14	Y14	Z14	X15	Y15	Z15	X16	Y16	Z16	X17	Y17	Z17	X18	Y18	Z18	X19	Y19	Z19	X20	Y20	Z20	X21	Y21	Z21	X22	Y22	Z22	X23	Y23	Z23	X24	Y24	Z24	X25	Y25	Z25	X26	Y26	Z26	X27	Y27	Z27	X28	Y28	Z28	X29	Y29	Z29	X30	Y30	Z30	X31	Y31	Z31	X32	Y32	Z32	X33	Y33	Z33	X34	Y34	Z34	X35	Y35	Z35	X36	Y36	Z36	X37	Y37	Z37	X38	Y38	Z38	X39	Y39	Z39	X40	Y40	Z40	X41	Y41	Z41	X42	Y42	Z42	X43	Y43	Z43	X44	Y44	Z44	X45	Y45	Z45	X46	Y46	Z46	X47	Y47	Z47	X48	Y48	Z48	X49	Y49	Z49	X50	Y50	Z50	X51	Y51	Z51	X52	Y52	Z52	X53	Y53	Z53	

77	0.76	-1335.324340820312	1040.832275390625	509.0229797363281	-1349.57421875	1037.125	332.8603820800781	-1337.234741210938	1086.183227539062	413.3138427734375	-1097.487548828125	1288.839721679688	409.8117980957031	-1361.01025390625	1217.870239257812	408.9467163085938	-1310.337890625	1486.853759765625	408.9468994140625	-1128.719848632812	1403.08203125	409.4203491210938	-1368.633544921875	1345.796142578125	482.3569641113281	-1331.696655273438	1449.022583007812	307.2383422851562	-1228.460571289062	1456.128051757812	234.1948394775391	-1242.326538085938	1328.781005859375	156.2381286621094	-1217.760986328125	1114.546264648438	136.1365203857422	-1280.525390625	1098.075439453125	221.2681579589844	-1118.697509765625	877.7191772460938	196.8554534912109	-1179.5498046875	864.52197265625	139.2474975585938	-1194.748168945312	1005.944641113281	128.1842803955078	-1100.891235351562	690.2737426757812	212.1661834716797	-1145.052856445312	785.6212158203125	142.1527862548828	-1092.317626953125	796.466552734375	190.6789398193359	-1245.25732421875	1449.2294921875	583.6528930664062	-1253.83935546875	1378.749267578125	646.0442504882812	-1272.439208984375	1111.935302734375	669.7882080078125	-1254.274047851562	1092.055297851562	571.7584838867188	-1125.306762695312	862.8012084960938	627.2997436523438	-1194.179809570312	846.8041381835938	678.5555419921875	-1257.34716796875	1032.910400390625	675.06591796875	-1116.150634765625	675.8792724609375	609.5413818359375	-1098.400390625	764.4281005859375	626.2710571289062	-1152.879272460938	759.17919921875	680.3656005859375	-1273.0224609375	1667.95751953125	341.7232360839844	-1114.89013671875	1701.401489257812	485.4423217773438	-1099.852905273438	1707.533813476562	360.5220642089844	-1280.501342773438	1654.408325195312	479.2582702636719	-1252.377563476562	966.2122802734375	240.7396240234375	-1266.122314453125	968.8709716796875	583.7853393554688	-1143.360229492188	980.3095092773438	554.9473876953125	-1135.86767578125	972.7960205078125	286.0319213867188	-1221.349731445312	500.3807067871094	285.1758422851562	-1239.545288085938	643.24560546875	250.4647827148438	-1325.138671875	51.97153091430664	274.9044189453125	-1284.373168945312	269.9073791503906	264.9191284179688	-1118.966186523438	46.66660308837891	264.4898986816406	-1164.6416015625	45.23864364624023	321.9137878417969	-1225.589721679688	44.33842849731445	228.3283081054688	-1372.69482421875	49.70132064819336	353.2396240234375	-1218.872192382812	518.4578247070312	564.5349731445312	-1195.55419921875	789.5435791015625	592.40185546875	-1302.36376953125	46.90674591064453	566.4281616210938	-1244.45849609375	401.6502075195312	572.8507690429688	-1083.657958984375	43.08159637451172	536.6207275390625	-1143.448120117188	48.28992080688477	494.7280883789062	-1178.298950195312	50.07587432861328	585.5570068359375	-1347.173095703125	47.36203765869141	507.5521850585938	
78	0.77	-1335.2314453125	1040.857543945312	509.0369262695312	-1349.47900390625	1037.14013671875	332.8621215820312	-1337.118041992188	1086.20263671875	413.3390502929688	-1097.359619140625	1288.79638671875	409.7913513183594	-1360.886108398438	1217.924438476562	408.8773498535156	-1310.121704101562	1486.871337890625	408.9129638671875	-1128.489379882812	1403.045043945312	409.3999633789062	-1368.534423828125	1345.812377929688	482.3622436523438	-1331.455444335938	1449.052612304688	307.2460327148438	-1228.265014648438	1456.129760742188	234.1616821289062	-1242.142700195312	1328.7841796875	156.2433776855469	-1217.673828125	1114.527954101562	136.1880493164062	-1280.480346679688	1098.10546875	221.3065490722656	-1118.817749023438	877.61376953125	196.9501647949219	-1179.646728515625	864.4828491210938	139.3195037841797	-1194.749633789062	1005.895080566406	128.2462921142578	-1101.091186523438	690.1925048828125	212.2910919189453	-1145.134033203125	785.5380249023438	142.2812652587891	-1092.49658203125	796.392578125	190.7328643798828	-1244.97607421875	1449.203735351562	583.5592041015625	-1253.699340820312	1378.73583984375	646.0492553710938	-1272.353881835938	1111.948486328125	669.750244140625	-1254.254516601562	1092.05810546875	571.734375	-1125.320434570312	862.7577514648438	627.3484497070312	-1194.219604492188	846.7634887695312	678.5927734375	-1257.295288085938	1032.92041015625	675.0640258789062	-1116.379638671875	675.7367553710938	609.6578369140625	-1098.329833984375	764.4078979492188	626.3244018554688	-1152.962280273438	759.1499633789062	680.4189453125	-1272.749877929688	1668.03662109375	341.70068359375	-1114.593139648438	1701.350952148438	485.4953308105469	-1099.490478515625	1707.493286132812	360.5655517578125	-1280.255493164062	1654.477905273438	479.1757202148438	-1252.296142578125	966.20703125	240.7405395507812	-1266.048583984375	968.8745727539062	583.78955078125	-1143.275390625	980.2796020507812	554.9331665039062	-1135.81103515625	972.774169921875	286.0179138183594	-1221.336181640625	500.3741149902344	285.1788330078125	-1239.526245117188	643.2381591796875	250.4630126953125	-1325.139892578125	51.96882247924805	274.9038696289062	-1284.3720703125	269.9026794433594	264.921875	-1118.969604492188	46.66828155517578	264.49267578125	-1164.6484375	45.24288558959961	321.9095458984375	-1225.593627929688	44.34123611450195	228.3296203613281	-1372.697387695312	49.69083404541016	353.241455078125	-1218.825561523438	518.4454956054688	564.5342407226562	-1195.436157226562	789.5213623046875	592.390869140625	-1302.378295898438	46.9011116027832	566.4241333007812	-1244.449951171875	401.6172180175781	572.8548583984375	-1083.66357421875	43.08211135864258	536.6176147460938	-1143.472045898438	48.28726196289062	494.7308044433594	-1178.3017578125	50.08732986450195	585.5598754882812	-1347.181762695312	47.34896850585938	507.5527038574219	
79	0.78	-1335.128540039062	1040.88232421875	509.0404052734375	-1349.379150390625	1037.151977539062	332.8655395507812	-1336.99462890625	1086.21923828125	413.3692016601562	-1097.218872070312	1288.749145507812	409.7726745605469	-1360.74755859375	1217.976196289062	408.8094177246094	-1309.902221679688	1486.890991210938	408.882080078125	-1128.269409179688	1403.007934570312	409.3772888183594	-1368.414306640625	1345.833374023438	482.3538513183594	-1331.2158203125	1449.08154296875	307.2510681152344	-1228.069580078125	1456.128173828125	234.1218719482422	-1241.957641601562	1328.782958984375	156.2516326904297	-1217.582153320312	1114.503295898438	136.2496795654297	-1280.431030273438	1098.131469726562	221.3557739257812	-1118.91162109375	877.5123291015625	197.0571594238281	-1179.730712890625	864.4374389648438	139.4130554199219	-1194.744995117188	1005.839477539062	128.3223114013672	-1101.290405273438	690.1101684570312	212.4279327392578	-1145.222412109375	785.4622802734375	142.419189453125	-1092.668212890625	796.3182373046875	190.7991943359375	-1244.682006835938	1449.1767578125	583.4642333984375	-1253.557495117188	1378.723876953125	646.0513916015625	-1272.27099609375	1111.959106445312	669.7115478515625	-1254.2353515625	1092.06103515625	571.7075805664062	-1125.334228515625	862.7112426757812	627.39013671875	-1194.253784179688	846.7202758789062	678.6267700195312	-1257.244506835938	1032.923217773438	675.060546875	-1116.600708007812	675.5892333984375	609.7741088867188	-1098.281860351562	764.3727416992188	626.3783569335938	-1153.04638671875	759.1168212890625	680.4708862304688	-1272.4697265625	1668.111206054688	341.6853637695312	-1114.312744140625	1701.292846679688	485.5391845703125	-1099.130004882812	1707.44775390625	360.6155395507812	-1280.00341796875	1654.536865234375	479.0818176269531	-1252.205200195312	966.1975708007812	240.7488555908203	-1265.983154296875	968.875732421875	583.7902221679688	-1143.186889648438	980.2500610351562	554.920166015625	-1135.75537109375	972.7500610351562	286.0027465820312	-1221.325317382812	500.3662109375	285.1830444335938	-1239.507446289062	643.2290649414062	250.4635314941406	-1325.140258789062	51.96425247192383	274.9040832519531	-1284.371215820312	269.8966979980469	264.9258728027344	-1118.974487304688	46.66923141479492	264.4953308105469	-1164.654174804688	45.24727630615234	321.9065246582031	-1225.598510742188	44.34256744384766	228.332763671875	-1372.703125	49.68168258666992	353.2424621582031	-1218.767578125	518.4324340820312	564.5352783203125	-1195.323486328125	789.5020141601562	592.381591796875	-1302.393798828125	46.89584350585938	566.423583984375	-1244.4326171875	401.5768737792969	572.8607788085938	-1083.670654296875	43.08551025390625	536.6134033203125	-1143.498168945312	48.28562545776367	494.7355346679688	-1178.307739257812	50.09927368164062	585.56298828125	-1347.190551757812	47.33109283447266	507.5562133789062	
80	0.79	-1335.013793945312	1040.906860351562	509.0341186523438	-1349.274780273438	1037.161254882812	332.8703918457031	-1336.863159179688	1086.233276367188	413.4017944335938	-1097.061889648438	1288.697387695312	409.755615234375	-1360.595581054688	1218.024658203125	408.7485656738281	-1309.681030273438	1486.912841796875	408.85595703125	-1128.06005859375	1402.9716796875	409.3539123535156	-1368.263793945312	1345.8564453125	482.3286743164062	-1330.978881835938	1449.109252929688	307.2517395019531	-1227.871826171875	1456.123291015625	234.0786743164062	-1241.77099609375	1328.777587890625	156.2622375488281	-1217.485107421875	1114.471557617188	136.3193817138672	-1280.378173828125	1098.153686523438	221.4134063720703	-1118.979858398438	877.416748046875	197.1732635498047	-1179.802124023438	864.3861694335938	139.5263519287109	-1194.732055664062	1005.778930664062	128.4115905761719	-1101.487915039062	690.0269775390625	212.5767974853516	-1145.327270507812	785.396240234375	142.5607147216797	-1092.829956054688	796.2411499023438	190.8812866210938	-1244.380249023438	1449.149658203125	583.37451171875	-1253.409545898438	1378.714233398438	646.0514526367188	-1272.18994140625	1111.96630859375	669.6735229492188	-1254.215209960938	1092.063598632812	571.677490234375	-1125.346801757812	862.6611328125	627.4244384765625	-1194.278076171875	846.6751708984375	678.656005859375	-1257.193969726562	1032.917602539062	675.056396484375	-1116.79443359375	675.451904296875	609.8865356445312	-1098.257934570312	764.3212890625	626.4302368164062	-1153.128540039062	759.0784301757812	680.5189819335938	-1272.1845703125	1668.176635742188	341.681884765625	-1114.04541015625	1701.227661132812	485.5735473632812	-1098.77490234375	1707.39697265625	360.6735534667969	-1279.740966796875	1654.581298828125	478.9846496582031	-1252.103759765625	966.1840209960938	240.7651519775391	-1265.924072265625	968.8753051757812	583.7888793945312	-1143.095336914062	980.222412109375	554.9093017578125	-1135.698364257812	972.7232666015625	285.9865112304688	-1221.317749023438	500.3567504882812	285.1870727539062	-1239.490112304688	643.2186889648438	250.4659881591797	-1325.14013671875	51.95866012573242	274.9049072265625	-1284.370971679688	269.8896789550781	264.9308166503906	-1118.9814453125	46.67030715942383	264.4971923828125	-1164.65869140625	45.25141525268555	321.9046020507812	-1225.603515625	44.34198379516602	228.3368530273438	-1372.71142578125	49.67482376098633	353.2424011230469	-1218.692138671875	518.4192504882812	564.5396728515625	-1195.218017578125	789.4854736328125	592.3724975585938	-1302.40869140625	46.89250564575195	566.4268188476562	-1244.401245117188	401.5293273925781	572.8659057617188	-1083.677734375	43.09289169311523	536.6085815429688	-1143.525634765625	48.28537368774414	494.7418518066406	-1178.318115234375	50.11015701293945	585.5653076171875	-1347.198852539062	47.31132888793945	507.5613098144531	
